<?xml version="1.0" encoding="UTF-8" standalone="no"?>
<!-- Created with Inkscape (http://www.inkscape.org/) -->

<svg
   width="46.636017"
   height="48"
   viewBox="0 0 46.636017 48"
   version="1.1"
   id="svg1"
   sodipodi:docname="bee-white.svg"
   inkscape:version="1.3.2 (091e20e, 2023-11-25, custom)"
   xmlns:inkscape="http://www.inkscape.org/namespaces/inkscape"
   xmlns:sodipodi="http://sodipodi.sourceforge.net/DTD/sodipodi-0.dtd"
   xmlns="http://www.w3.org/2000/svg"
   xmlns:svg="http://www.w3.org/2000/svg">
  <sodipodi:namedview
     id="namedview1"
     pagecolor="#ffffff"
     bordercolor="#000000"
     borderopacity="0.25"
     inkscape:showpageshadow="2"
     inkscape:pageopacity="0.0"
     inkscape:pagecheckerboard="true"
     inkscape:deskcolor="#ffffff"
     inkscape:document-units="px"
     labelstyle="default"
     showgrid="true"
     inkscape:zoom="25.604167"
     inkscape:cx="23.316517"
     inkscape:cy="24"
     inkscape:window-width="2560"
     inkscape:window-height="1506"
     inkscape:window-x="-11"
     inkscape:window-y="-11"
     inkscape:window-maximized="1"
     inkscape:current-layer="layer1">
    <sodipodi:guide
       position="-0.56278545,48.482375"
       orientation="0,48"
       id="guide1"
       inkscape:locked="false" />
    <sodipodi:guide
       position="47.437215,48.482375"
       orientation="48,0"
       id="guide2"
       inkscape:locked="false" />
    <sodipodi:guide
       position="47.437215,0.48237539"
       orientation="0,-48"
       id="guide3"
       inkscape:locked="false" />
    <sodipodi:guide
       position="-0.56278545,0.48237539"
       orientation="-48,0"
       id="guide4"
       inkscape:locked="false" />
  </sodipodi:namedview>
  <defs
     id="defs1">
    <filter
       style="color-interpolation-filters:sRGB"
       inkscape:label="Colorize"
       id="filter4"
       x="0"
       y="0"
       width="1"
       height="1">
      <feComposite
         in2="SourceGraphic"
         operator="arithmetic"
         k1="0"
         k2="1"
         result="composite1"
         id="feComposite3"
         k3="0"
         k4="0" />
      <feColorMatrix
         in="composite1"
         values="1"
         type="saturate"
         result="colormatrix1"
         id="feColorMatrix3" />
      <feFlood
         flood-opacity="1"
         flood-color="rgb(255,255,255)"
         result="flood1"
         id="feFlood3" />
      <feBlend
         in="flood1"
         in2="colormatrix1"
         mode="multiply"
         result="blend1"
         id="feBlend3" />
      <feBlend
         in2="blend1"
         mode="screen"
         result="blend2"
         id="feBlend4" />
      <feColorMatrix
         in="blend2"
         values="1"
         type="saturate"
         result="colormatrix2"
         id="feColorMatrix4" />
      <feComposite
         in="colormatrix2"
         in2="SourceGraphic"
         operator="in"
         result="fbSourceGraphic"
         id="feComposite4" />
      <feColorMatrix
         result="fbSourceGraphicAlpha"
         in="fbSourceGraphic"
         values="0 0 0 -1 0 0 0 0 -1 0 0 0 0 -1 0 0 0 0 1 0"
         id="feColorMatrix5" />
      <feComposite
         id="feComposite5"
         in2="fbSourceGraphic"
         operator="arithmetic"
         k1="0"
         k2="1"
         result="composite1"
         in="fbSourceGraphic"
         k3="0"
         k4="0" />
      <feColorMatrix
         id="feColorMatrix6"
         in="composite1"
         values="1"
         type="saturate"
         result="colormatrix1" />
      <feFlood
         id="feFlood6"
         flood-opacity="1"
         flood-color="rgb(255,255,255)"
         result="flood1" />
      <feBlend
         id="feBlend6"
         in="flood1"
         in2="colormatrix1"
         mode="multiply"
         result="blend1" />
      <feBlend
         id="feBlend7"
         in2="blend1"
         mode="screen"
         result="blend2" />
      <feColorMatrix
         id="feColorMatrix7"
         in="blend2"
         values="1"
         type="saturate"
         result="colormatrix2" />
      <feComposite
         id="feComposite7"
         in="colormatrix2"
         in2="fbSourceGraphic"
         operator="in"
         result="composite2" />
    </filter>
  </defs>
  <g
     inkscape:label="Layer 1"
     inkscape:groupmode="layer"
     id="layer1"
     transform="translate(-1.4971345,-1.0403941)">
    <g
       id="g7"
       transform="translate(-3908.0009,-2456.3054)"
       style="image-rendering:auto">
      <g
         inkscape:groupmode="layer"
         id="layer1-1"
         inkscape:label="Bee"
         style="filter:url(#filter4)"
         transform="matrix(0.09438908,0,0,0.09438908,3563.8218,2244.1123)">
        <g
           id="g76"
           transform="matrix(1.2954417,0,0,-1.2954417,3909.2891,2532.8406)">
          <path
             d="m 0,0 c -7.815,0.001 -15.632,1.458 -21.576,4.374 2.25,4.239 4.099,8.856 5.514,13.866 H 0 16.063 C 17.477,13.23 19.326,8.613 21.576,4.374 15.632,1.458 7.816,0.001 0,0 m 0,98.995 -0.341,0.002 c -2.367,0 -4.679,-0.242 -6.905,-0.698 -2.587,6.474 -5.784,10.46 -9.6,11.968 0,3.3 -2.678,5.975 -5.981,5.975 -3.304,0 -5.98,-2.675 -5.98,-5.975 0,-3.298 2.676,-5.973 5.98,-5.973 1.173,0 2.265,0.338 3.191,0.919 3.326,-1.859 5.946,-4.577 7.88,-8.17 -13.263,-4.695 -22.762,-17.323 -22.762,-32.18 0,-0.547 0.012,-1.087 0.039,-1.622 -53.524,7.117 -82.88,-26.129 -88.033,-99.735 26.348,-4.633 51.054,-0.451 74.122,12.555 16.02,-29.226 43.252,-31.64 46.464,-59.903 0.573,-1.707 1.214,-2.471 1.926,-2.293 0.712,-0.178 1.353,0.586 1.926,2.293 3.212,28.263 30.444,30.677 46.465,59.903 23.067,-13.006 47.774,-17.188 74.121,-12.555 -5.153,73.606 -34.51,106.852 -88.033,99.735 0.028,0.535 0.039,1.075 0.039,1.622 0,14.857 -9.499,27.485 -22.762,32.18 1.934,3.593 4.554,6.311 7.88,8.17 0.926,-0.581 2.018,-0.919 3.191,-0.919 3.304,0 5.98,2.675 5.98,5.973 0,3.3 -2.676,5.975 -5.98,5.975 -3.303,0 -5.98,-2.675 -5.98,-5.975 -3.817,-1.508 -7.014,-5.494 -9.6,-11.968 -2.227,0.456 -4.539,0.698 -6.906,0.698 z M 0,-41.662 h -7.084 c -14.39,0 -24.864,6.734 -24.864,17.407 H 0 31.948 c 0,-10.673 -10.474,-17.407 -24.864,-17.407 z m 31.75,93.047 c -3.095,-0.299 -6.273,-0.722 -9.549,-1.273 -0.203,-3.987 -0.203,-7.821 -0.005,-11.496 2.288,-42.98 31.702,-64.801 88.247,-65.471 -4.042,56.828 -30.271,82.912 -78.693,78.24 m -63.5,0 c 3.095,-0.299 6.274,-0.722 9.549,-1.273 0.203,-3.987 0.203,-7.821 0.005,-11.496 -2.288,-42.98 -31.702,-64.801 -88.247,-65.471 4.042,56.828 30.272,82.912 78.693,78.24"
             style="fill:#ffffff;fill-opacity:1;fill-rule:evenodd;stroke:none"
             id="path78" />
        </g>
        <g
           id="g72"
           transform="matrix(1.2954417,0,0,-1.2954417,3849.3216,2433.2771)">
          <path
             d="m 0,0 0.485,0.839 -31.419,54.35 h -62.879 l -31.428,-54.365 31.428,-54.33 h 16.872 c -2.135,-5.386 -3.917,-10.96 -5.407,-16.617 h -11.465 l -31.418,-54.346 31.422,-54.35 h 62.871 l 15.714,27.177 15.354,26.561 c 2.917,-3.068 6.056,-5.991 9.426,-8.885 0.994,-0.853 2.041,-1.719 3.113,-2.601 l -29.241,-50.581 31.428,-54.33 h 62.881 l 15.718,27.167 15.709,27.163 -29.243,50.587 c 1.07,0.88 2.113,1.743 3.105,2.595 3.372,2.895 6.512,5.819 9.429,8.887 l 31.072,-53.74 h 62.869 l 15.714,27.177 15.709,27.173 -31.419,54.346 h -11.469 c -1.49,5.657 -3.272,11.231 -5.407,16.617 H 186.4 L 202.119,-26.338 217.828,0.824 186.4,55.189 H 123.521 L 92.103,0.839 92.587,0.001 91.971,-0.011 C 90.223,6.586 87.06,12.676 82.769,17.861 l 26.384,45.637 -31.416,54.346 H 14.856 L -16.566,63.489 8.941,19.38 9.817,17.865 C 5.524,12.679 2.361,6.587 0.612,-0.011 Z M 123.506,-195.437 87.299,-258.095 H 5.29 l -36.205,62.658 h -72.465 l -41.029,70.968 36.228,62.659 -36.213,62.674 41.014,70.943 h 72.446 L 5.29,134.461 h 82.009 l 36.222,-62.654 h 72.442 l 41.014,-70.943 -2.387,-4.143 -33.826,-58.536 36.228,-62.654 -2.402,-4.157 -38.627,-66.811 z"
             style="fill:#ffffff;fill-opacity:1;fill-rule:nonzero;stroke:none"
             id="path74" />
        </g>
      </g>
    </g>
  </g>
</svg>
